<?xml version="1.0" encoding="UTF-8"?>
<!-- Generator: Adobe Illustrator 26.1.0, SVG Export Plug-In . SVG Version: 6.00 Build 0)  -->
<svg xmlns="http://www.w3.org/2000/svg" xmlns:xlink="http://www.w3.org/1999/xlink" version="1.1" id="Layer_1" x="0px" y="0px" width="630.788px" height="498.178px" viewBox="0 0 630.788 498.178" xml:space="preserve">
<path id="_x23_97CA3D" fill="#97CA3D" d="M241.788,325.802c-6.371-10.309-18.882-16.712-32.652-16.712  c-3.237,0-6.485,0.034-9.627,0.067c-14.32,0.149-27.848,0.292-37.872-2.752h-0.001c-2.534-0.77-6.786-2.633-6.779-6.462  c0.006-3.65,4.008-8.777,12.779-11.408c2.202-0.661,4.538-1.303,7.011-1.983c17.125-4.71,38.439-10.571,40.995-30.163  c1.614-12.374-1.008-36.01-14.843-50.407c-7.949-8.271-18.539-12.067-30.637-10.977c-20.531,1.851-26.18,24.155-31.163,43.833  c-2.931,11.571-5.96,23.536-11.505,26.782c-1.773,1.037-3.813,1.192-6.424,0.488c-8.145-2.199-6.007-17.689-3.743-34.088  c2.594-18.795,5.534-40.097-5.953-51.224c-6.982-6.764-17.995-8.751-33.672-6.076c-12.586,2.148-23.611,10.85-28.089,22.171  c-3.838,9.703-4.964,25.821,11.466,47.503c27.673,36.516,31.597,45.853,23.326,55.503c-4.159,4.853-11.496,4.006-23.119,2.221  c-9.135-1.402-19.49-2.991-29.463-0.221c-12.34,3.427-23.657,14.763-28.833,28.878c-5.472,14.923-3.383,30.649,5.881,44.281  c9.72,14.303,22.285,21.373,35.391,19.916c13.175-1.468,24.617-11.429,30.607-26.647c6.073-15.429,14.915-26.368,23.652-29.26  c2.064-0.684,5.054-1.168,7.585,0.405c2.317,1.442,3.914,3.995,4.617,7.385c1.897,9.151-2.771,22.714-12.809,37.212  c-10.81,15.615-12.777,36.091-4.893,50.954c5.714,10.775,15.875,16.93,27.917,16.929c0.119,0,0.239-0.001,0.358-0.002  c16.009-0.162,24.239-7.056,28.325-12.811c6.32-8.905,7.506-21.873,3.171-34.69c-1.236-3.655-3.039-8.059-4.948-12.723  c-8.17-19.959-19.359-47.293-3.473-55.236c0.465-0.233,1.084-0.422,2.142-0.065c3.43,1.156,9.752,7.081,20.398,28.742  c5.604,11.401,22.866,27.228,40.702,27.288c0.035,0,0.068,0,0.103,0c9.208,0,22.23-4.202,32.187-24.118  C250.315,347.508,246.675,333.71,241.788,325.802z M233.33,365.05c-6.655,13.309-15.271,20.056-25.613,20.056  c-0.027,0-0.055,0-0.081,0c-14.666-0.05-29.492-13.739-34.134-23.182c-9.841-20.023-17.442-30.036-24.645-32.464  c-2.682-0.904-5.371-0.747-7.776,0.456c-9.856,4.928-13.712,14.84-11.461,29.46c1.785,11.594,7.127,24.645,11.421,35.131  c1.864,4.554,3.625,8.856,4.788,12.294c3.583,10.593,2.76,21.092-2.203,28.084c-4.502,6.343-12.041,9.612-22.407,9.717  c-9.47,0.086-17.204-4.529-21.71-13.023c-6.63-12.5-4.844-29.913,4.444-43.329c11.341-16.381,16.299-31.612,13.962-42.886  c-1.121-5.407-3.864-9.603-7.932-12.132c-2.295-1.428-4.957-2.149-7.794-2.149c-1.931,0-3.944,0.334-5.979,1.008  c-10.944,3.623-21.215,15.85-28.18,33.544c-4.974,12.637-14.165,20.875-24.584,22.036c-10.262,1.139-20.385-4.803-28.5-16.744  c-7.898-11.621-9.695-24.982-5.06-37.622c4.32-11.781,13.926-21.558,23.902-24.329c8.453-2.348,17.567-0.949,26.382,0.404  c11.717,1.8,22.784,3.497,29.812-4.701c12.61-14.712,3.694-29.434-23.048-64.722c-11.372-15.006-14.999-28.963-10.49-40.363  c3.554-8.986,12.383-15.906,22.493-17.631c13.021-2.223,22.216-0.839,27.325,4.111c8.812,8.536,6.142,27.877,3.786,44.942  c-1.303,9.44-2.533,18.356-1.989,25.601c0.691,9.204,4.424,14.784,11.096,16.586c4.508,1.217,8.564,0.801,12.051-1.24  c8.2-4.799,11.462-17.681,14.916-31.319c4.598-18.159,9.354-36.936,24.701-38.319c9.937-0.895,18.239,2.048,24.679,8.75  c10.661,11.093,14.58,31.138,12.855,44.366c-1.924,14.752-19.846,19.68-35.657,24.029c-2.515,0.692-4.891,1.345-7.174,2.03  c-10.762,3.229-18.002,10.636-18.015,18.433c-0.01,6.173,4.473,11.221,11.992,13.505c11.106,3.373,25.187,3.226,40.084,3.069  c3.123-0.033,6.352-0.067,9.55-0.067c11.243,0,21.36,5.068,26.402,13.228C241.138,338.725,240.374,350.961,233.33,365.05z   M132.155,302.872c-3.105-3.934-8.808-5.452-13.866-3.697c-4.85,1.684-7.862,5.947-7.862,11.126c0,5.687,1.877,10.332,5.284,13.078  c2.116,1.706,4.721,2.588,7.537,2.588c1.005,0,2.038-0.113,3.084-0.34c4.167-0.906,7.513-3.837,8.948-7.841  C136.996,312.998,135.857,307.562,132.155,302.872L132.155,302.872z M128.363,315.307c-0.592,1.65-1.867,2.766-3.593,3.141  c-1.814,0.395-3.311,0.129-4.45-0.789c-1.619-1.305-2.547-3.986-2.547-7.358c0-2.62,1.591-3.722,2.925-4.185  c0.59-0.205,1.256-0.317,1.933-0.317c1.405,0,2.854,0.484,3.756,1.626C128.486,310.083,129.206,312.955,128.363,315.307z"></path>
<path id="_x23_EF559E" fill="#EF559E" d="M617.731,68.638c-12.326-11.366-23.12-16.127-33.001-14.555  c-16.256,2.584-25.424,22.062-33.513,39.247c-7.057,14.995-13.724,29.158-22.109,26.245c-2.688-0.934-4.399-2.252-5.387-4.15  c-3.091-5.938,0.845-17.681,4.651-29.038c6.473-19.314,13.809-41.204-3.246-54.713c-10.05-7.959-21.47-10.965-33.034-8.699  c-20.127,3.943-35.48,22.125-40.889,33.385c-8.563,17.827,6.969,35.135,19.448,49.042c1.802,2.008,3.505,3.905,5.079,5.739  c6.27,7.305,6.964,13.913,4.955,16.96c-2.108,3.197-6.879,2.273-9.535,1.439l-0.001,0c-10.506-3.303-22.338-11.305-34.864-19.774  c-2.748-1.858-5.589-3.78-8.44-5.666c-12.124-8.024-26.674-9.975-37.973-5.091c-8.668,3.746-19.489,13.132-21.814,36.568  c-2.224,22.41,6.922,33.503,15.029,38.869c0.031,0.02,0.06,0.04,0.091,0.06c15.737,10.343,39.672,7.205,50.898,0.963  c21.329-11.859,30.166-13.116,33.824-12.081c1.129,0.319,1.569,0.837,1.85,1.302c9.604,15.882-15.334,32.155-33.543,44.038  c-4.255,2.776-8.273,5.398-11.379,7.726c-10.891,8.162-17.004,19.666-16.354,30.776c0.42,7.18,3.862,17.725,17.868,27.189  c0.104,0.071,0.21,0.141,0.314,0.21c10.603,7.018,22.946,7.806,33.924,2.151c15.144-7.8,24.714-26.021,23.814-45.342  c-0.836-17.939,2.539-31.97,9.26-38.495c2.489-2.417,5.305-3.616,8.141-3.468c3.097,0.163,5.462,2.309,6.902,4.082  c6.096,7.503,7.845,21.778,4.676,38.183c-3.124,16.181,1.452,31.155,12.242,40.057c10.735,8.853,25.701,10.278,42.153,4.015  c15.681-5.969,26.2-17.866,29.618-33.499c3.233-14.787-0.476-30.835-9.449-40.884c-7.252-8.122-17.246-12.831-26.063-16.985  c-11.219-5.285-18.146-8.854-19.13-15.324c-1.957-12.867,6.652-18.367,51.171-32.691c26.433-8.506,34.337-22.603,36.313-32.931  C632.531,91.446,627.627,77.763,617.731,68.638z M622.719,101.768c-2.321,12.134-13.219,21.659-31.513,27.545  c-43.022,13.843-58.998,20.924-56.014,40.541c1.663,10.932,12.344,15.965,23.654,21.293c8.508,4.009,17.305,8.153,23.452,15.037  c7.254,8.124,10.316,21.875,7.617,34.216c-2.896,13.241-11.852,23.335-25.22,28.424c-13.736,5.228-25.928,4.285-34.335-2.645  c-8.533-7.04-12.079-19.265-9.484-32.702c3.633-18.814,1.338-34.995-6.298-44.394c-1.42-1.747-3.008-3.199-4.709-4.325  c-2.498-1.653-5.239-2.603-8.049-2.75c-4.977-0.261-9.708,1.639-13.679,5.495c-8.28,8.04-12.321,23.63-11.376,43.899  c0.773,16.6-7.264,32.161-20.001,38.721c-8.656,4.458-18.012,3.8-26.303-1.791c-9.07-6.129-13.903-13.248-14.366-21.161  c-0.511-8.722,4.559-17.957,13.56-24.703c2.921-2.189,6.845-4.75,11-7.462c9.568-6.243,21.474-14.013,29.445-22.641  c10.051-10.88,12.126-21.392,6.168-31.245c-1.453-2.404-3.735-4.102-6.595-4.911c-7.682-2.172-19.9,1.748-39.616,12.71  c-9.299,5.17-29.908,7.945-42.848-0.56c-0.023-0.015-0.048-0.031-0.071-0.047c-9.106-6.027-12.968-16.674-11.483-31.651  c1.574-15.853,7.655-26.502,17.586-30.795c8.943-3.865,20.648-2.197,30.547,4.355c2.816,1.864,5.64,3.774,8.372,5.621  c13.029,8.813,25.346,17.14,36.986,20.8c7.881,2.478,14.615,0.88,18.012-4.273c4.292-6.509,2.006-16.905-5.688-25.869  c-1.632-1.901-3.363-3.831-5.196-5.873c-11.522-12.84-24.581-27.393-18.134-40.817c5.781-12.036,20.295-26.468,35.805-29.506  c9.37-1.836,18.304,0.547,26.559,7.085c12.749,10.097,6.573,28.527,0.6,46.349c-4.486,13.385-8.723,26.028-4.152,34.809  c1.944,3.734,5.285,6.444,9.926,8.057c6.868,2.386,13.235-0.092,18.923-7.365c4.478-5.725,8.315-13.877,12.378-22.508  c7.344-15.603,15.669-33.288,28.138-35.271c7.23-1.15,16.09,3.054,26.328,12.495C620.595,81.287,624.549,92.204,622.719,101.768z   M499.055,143.773L499.055,143.773c-5.848,1.753-9.851,5.623-10.982,10.616c-0.946,4.175,0.382,8.568,3.551,11.752  c0.796,0.799,1.643,1.495,2.528,2.081c2.479,1.641,5.26,2.423,8.064,2.234c4.516-0.304,8.731-3.084,11.87-7.826  c2.858-4.319,2.559-9.63-0.782-13.86C509.819,144.359,503.96,142.303,499.055,143.773z M507.617,158.349  c-1.861,2.811-4.158,4.507-6.303,4.651c-1.509,0.102-2.974-0.548-4.353-1.935c-1.312-1.318-1.82-2.992-1.43-4.713  c0.556-2.452,2.775-4.429,6.089-5.422c1.424-0.427,2.967,0.014,4.204,0.833c0.596,0.395,1.121,0.876,1.527,1.391  C508.271,154.318,509.063,156.164,507.617,158.349z"></path>
<path id="_x23_F6AA1C" fill="#F6AA1C" d="M442.544,336.174c-5.647-6.991-14.761-10.318-25.012-9.126  c-9.262,1.077-15.554,6.868-20.61,11.521c-6.813,6.269-9.813,8.649-15.737,4.562c-12.684-8.753-2.226-31.305,4.037-44.809  c5.08-10.953,5.472-28.145-2.665-37.956c-4.213-5.079-12.45-10.318-27.762-6.439c-8.635,2.189-14.949,6.601-18.764,13.115  c-8.428,14.391-2.74,35.517,1.413,50.944c0.494,1.835,0.965,3.583,1.384,5.221c3.45,13.483,0.651,22.014-3.897,23.47  c-3.488,1.119-8.759-2.257-12.089-10.865c-9.974-25.786-27.038-40.755-42.455-37.251c-8.292,1.885-15.013,7.308-18.439,14.881  c-3.075,6.797-4.878,18.331,4.002,34.681c8.579,15.797,24.707,13.991,36.481,12.675c11.249-1.259,14.924-0.978,16.002,3.229  c1.273,4.971-3.365,7.619-15.063,12.906c-11.956,5.404-26.836,12.129-32.495,27.878c-6.292,17.506,2.893,34.941,15.218,43.115  c11.895,7.889,25.535,7.029,35.599-2.245c13.103-12.075,13.383-31.941,13.587-46.446c0.083-5.883,0.154-10.963,0.97-14.422  c0.802-3.401,1.808-3.415,2.543-3.426c0.009,0,0.018,0,0.027,0c1.269,0,5.626,1.289,10.201,17.264  c3.14,10.96,5.161,24.642,6.499,33.695c0.607,4.106,1.086,7.35,1.522,9.448c1.512,7.284,9.295,19.427,21.201,22.355  c1.533,0.377,3.252,0.626,5.122,0.626c6.249,0,14.174-2.776,22.407-12.81c8.265-10.073,11.409-20.015,9.345-29.55  c-2.612-12.063-13.461-22.866-32.246-32.11c-10.323-5.08-17.451-11.018-19.065-15.886c-0.559-1.685-0.459-3.176,0.318-4.693  c0.5-0.976,1.014-1.21,1.494-1.316c5.603-1.24,20.549,10.399,29.475,17.354c7.906,6.16,17.297,8.046,26.448,5.31  c10.948-3.274,20.059-12.802,24.373-25.489C449.804,354.128,448.609,343.683,442.544,336.174z M438.953,363.22  c-3.55,10.439-10.848,18.221-19.522,20.814c-6.808,2.036-13.85,0.592-19.827-4.067c-15.069-11.742-27.259-20.576-35.58-18.732  c-2.815,0.623-5.044,2.402-6.446,5.143c-1.661,3.246-1.92,6.826-0.751,10.352c2.933,8.839,14.015,15.844,22.795,20.165  c16.671,8.203,26.196,17.311,28.309,27.072c1.565,7.232-1.074,15.083-7.844,23.335c-6.638,8.091-13.398,11.357-20.094,9.711  c-8.341-2.052-14.615-11.186-15.762-16.714c-0.393-1.89-0.881-5.198-1.447-9.029c-4.28-28.966-9.655-57.232-23.945-57.232  c-0.052,0-0.104,0-0.156,0.001c-3.408,0.049-7.838,1.665-9.588,9.085c-1,4.24-1.077,9.693-1.166,16.006  c-0.196,13.906-0.44,31.212-11.22,41.146c-7.562,6.969-17.491,7.537-26.558,1.524c-9.939-6.591-17.377-20.561-12.365-34.507  c4.607-12.82,17.357-18.583,28.607-23.667c10.858-4.907,22.085-9.982,19.155-21.424c-2.834-11.068-14.045-9.814-23.936-8.707  c-11.3,1.264-22.988,2.572-29.208-8.88c-7.439-13.698-6.153-22.866-3.765-28.146c2.469-5.458,7.344-9.374,13.373-10.745  c11.532-2.624,25.506,10.84,33.975,32.737c5.229,13.52,14.407,17.382,21.182,15.213c7.839-2.509,13.592-13.467,8.775-32.289  c-0.426-1.666-0.905-3.444-1.407-5.309c-3.816-14.173-9.042-33.584-2.167-45.321c2.823-4.82,7.478-7.995,14.229-9.706  c9.309-2.359,16.14-1.011,20.301,4.007c6.004,7.24,5.703,21.447,1.642,30.204c-7.223,15.576-19.314,41.646-1.532,53.918  c10.989,7.584,18.372,0.791,24.885-5.203c4.717-4.34,9.593-8.828,16.485-9.629c7.688-0.896,14.417,1.454,18.447,6.445  C441.253,346.269,442.008,354.235,438.953,363.22z M350.973,360.181c1.006,3.25,0.859,8.23-5.224,9.303  c-6.083,1.073-8.588-2.505-7.657-7.657c0.93-5.153,4.081-5.653,6.549-5.868C347.109,355.744,350.043,357.175,350.973,360.181z"></path>
<path id="_x23_FBDE00" fill="#FBDE00" d="M599.428,403.28c-6.981-6.113-17.83-8.569-31.37-7.106  c-9.427,1.019-16.448-0.127-19.764-3.229c-1.547-1.446-2.249-3.36-2.148-5.85c0.245-6.006,13.253-8.506,21.024-10  c1.712-0.329,3.328-0.64,4.69-0.956c8.363-1.941,16.233-9.411,19.139-18.164c2.965-8.933,0.757-18.395-6.215-26.644  c-9.271-10.968-22.303-16.149-33.19-13.203c-8.45,2.286-14.266,9.141-15.956,18.805c-0.578,3.306-0.692,7.12-0.813,11.158  c-0.266,8.909-0.568,19.007-6.41,20.991c-1.565,0.531-2.869,0.368-4.101-0.516c-1.676-1.201-7.146-6.831-7.146-28.853  c0-12.731-6.643-22.637-17.771-26.497c-10.781-3.741-22.583-0.478-29.363,8.12c-4.683,5.937-6.412,13.215-4.869,20.494  c2.295,10.826,11.378,20.912,25.577,28.398c12.567,6.626,16.074,13.444,15.26,17.269c-0.532,2.495-3.042,4.129-6.716,4.37  c-3.113,0.203-7.504-0.216-12.154-0.66c-14.147-1.353-33.525-3.207-40.487,11.091c-3.604,7.402-3.064,19.492,1.258,28.121  c3.555,7.099,9.22,11.576,16.383,12.948c1.222,0.234,2.413,0.344,3.577,0.344c11.801-0.001,20.636-11.299,26.664-19.009  c1.989-2.544,4.046-5.174,5.196-5.984c2.781-1.956,5.39-2.895,7.153-2.574c0.577,0.105,1.444,0.389,2.297,1.639  c1.904,2.793,0.369,10.054-7.503,19.394c-10.665,12.654-17.829,34.058-11.359,47.973c2.764,5.943,9.142,13.028,23.829,13.028  c9.927,0,17.098-3.033,21.311-9.016c9.001-12.779,1.102-34.862-2.695-45.475c-0.376-1.049-0.706-1.973-0.968-2.746  c-2.72-8.031-0.671-15.927,1.879-17.626c1.344-0.896,3.28,0.375,4.667,1.597c2.752,2.422,5.357,5.168,8.114,8.076  c7.549,7.959,16.104,16.98,29.063,19.399c9.434,1.76,17.899-0.056,23.839-5.115c4.209-3.585,9.161-10.534,8.845-23.276  C607.974,415.151,605.025,408.181,599.428,403.28z M594.583,441.678c-4.22,3.594-10.515,4.832-17.727,3.486  c-10.616-1.982-17.641-9.389-25.08-17.233c-2.749-2.898-5.591-5.895-8.591-8.535c-6.568-5.781-11.695-3.461-13.595-2.195  c-6.119,4.078-8.256,15.785-4.763,26.097c0.273,0.805,0.617,1.769,1.008,2.863c3.116,8.71,10.411,29.107,3.606,38.77  c-2.757,3.914-7.906,5.899-15.305,5.899c-8.682,0-14.457-2.954-17.166-8.779c-5.165-11.106,1.333-29.483,10.315-40.14  c9.424-11.183,12.398-21.75,7.954-28.267c-1.755-2.575-4.195-4.21-7.054-4.729c-0.658-0.119-1.334-0.179-2.025-0.179  c-3.297,0-6.943,1.351-10.668,3.973c-2.04,1.435-4.121,4.097-6.756,7.466c-5.853,7.486-13.87,17.736-23.072,15.975  c-4.9-0.939-8.667-3.974-11.195-9.022c-3.678-7.346-3.498-16.939-1.221-21.615c4.73-9.715,20.505-8.206,33.181-6.993  c4.953,0.473,9.629,0.921,13.335,0.678c7.041-0.462,12.183-4.359,13.421-10.17c1.831-8.597-5.279-18.054-19.019-25.298  c-12.234-6.45-19.982-14.769-21.816-23.423c-1.098-5.18,0.095-10.166,3.45-14.42c4.845-6.142,13.359-8.444,21.187-5.729  c8.035,2.787,12.831,10.098,12.831,19.556c0,17.996,3.532,30.038,10.213,34.826c3.19,2.286,6.906,2.803,10.743,1.5  c10.671-3.625,11.071-16.99,11.392-27.728c0.113-3.767,0.219-7.326,0.706-10.112c1.196-6.837,4.974-11.447,10.638-12.979  c8.151-2.206,18.224,2.055,25.661,10.853c5.334,6.31,7.012,13.083,4.853,19.587c-2.387,7.193-8.763,12.147-13.827,13.322  c-1.224,0.284-2.774,0.582-4.415,0.898c-10.551,2.028-26.496,5.092-26.978,16.915c-0.189,4.622,1.357,8.605,4.47,11.516  c4.974,4.651,13.815,6.439,25.572,5.167c11.448-1.236,20.347,0.605,25.74,5.328c3.989,3.493,6.095,8.664,6.26,15.37  C601.04,431.971,598.874,438.023,594.583,441.678z M532.815,397.25c0.088,4.217-4.294,7.943-10.734,6.011  c-6.441-1.932-5.797-11.808-1.503-14.169C524.871,386.73,532.6,386.945,532.815,397.25z"></path>
<path id="_x23_7865AC" fill="#7865AC" d="M342.006,126.635c-2.903-6.336-9.072-10.997-17.375-13.128  c-11.405-2.926-21.733,1.154-30.846,4.753c-3.329,1.315-6.473,2.557-9.615,3.481c-1.584,0.466-3.63,0.766-4.381-0.466  c-1.424-2.337-0.106-9.503,5.123-14.981c0.503-0.527,1.119-1.15,1.819-1.858c7.074-7.162,21.795-22.066,19.324-35.807  c-1.157-6.432-5.82-11.591-13.858-15.334c-11.893-5.536-19.728-2.204-24.206,1.567c-10.485,8.828-12.752,28.861-8.886,43.127  c2.853,10.53,1.36,16.988-1.235,18.532c-1.162,0.691-1.97,0.594-2.477,0.461c-1.549-0.405-3.308-2.148-4.822-4.781  c-0.626-1.089-1.3-3.994-1.952-6.804c-1.975-8.516-4.87-20.994-14.425-25.443c-0.943-0.439-1.949-0.799-3.026-1.07  c-6.317-1.589-12.592-0.099-18.147,4.309c-6.752,5.359-11.746,14.944-11.619,22.297c0.248,14.201,16.637,20.005,28.603,24.242  c3.933,1.393,7.646,2.709,10.091,4.047c2.884,1.58,4.301,3.849,3.791,6.07c-0.782,3.404-6.193,7.603-18.866,8.231  c-14.319,0.71-25.475,5.452-31.415,13.354c-3.993,5.313-5.336,11.858-3.782,18.43c2.249,9.518,10.576,16.609,20.715,17.644  c10.466,1.069,19.579-4.448,24.378-14.757c8.301-17.832,14.852-20.329,16.662-20.67c1.331-0.251,2.448,0.108,3.515,1.129  c3.983,3.809,0.421,12.099-2.722,19.413c-1.424,3.315-2.77,6.447-3.548,9.341c-2.274,8.463-0.149,16.205,5.832,21.242  c7.705,6.49,20.211,7.207,31.852,1.82c8.756-4.051,14.11-10.881,15.076-19.232c0.947-8.183-2.611-17.198-8.65-21.923  c-0.984-0.769-2.175-1.63-3.437-2.542c-5.73-4.139-15.32-11.066-13.255-16.022c0.857-2.055,2.147-3.339,3.945-3.928  c3.855-1.261,9.972,0.457,17.221,4.836c10.412,6.289,20.123,8.39,28.08,6.071c6.38-1.859,11.395-6.391,14.906-13.47  C345.453,138.618,344.063,131.125,342.006,126.635z M334.516,145.902c-2.662,5.368-6.317,8.761-10.863,10.086  c-6.148,1.791-14.047-0.072-22.851-5.388c-9.041-5.462-16.874-7.347-22.654-5.455c-3.618,1.184-6.371,3.826-7.961,7.64  c-4.066,9.755,7.69,18.247,15.469,23.866c1.209,0.874,2.352,1.699,3.236,2.391c3.657,2.861,6.953,9.275,6.175,16  c-0.703,6.08-4.616,10.932-11.313,14.031c-9.339,4.321-19.101,3.975-24.87-0.885c-4.009-3.376-5.33-8.533-3.721-14.52  c0.656-2.44,1.911-5.361,3.24-8.454c3.788-8.816,8.502-19.789,1.228-26.747c-2.617-2.502-5.82-3.483-9.265-2.835  c-7.215,1.358-14.614,9.778-21.398,24.35c-3.565,7.658-10.205,11.77-17.762,10.998c-7.362-0.752-13.388-5.826-14.996-12.625  c-1.113-4.709-0.2-9.196,2.642-12.977c4.747-6.316,14.156-10.131,26.494-10.743c13.856-0.687,23.179-5.665,24.936-13.316  c1.188-5.172-1.507-10.266-7.034-13.294c-2.909-1.594-6.865-2.994-11.053-4.478c-10.722-3.796-24.064-8.521-24.232-18.171  c-0.081-4.645,3.389-12.481,9.137-17.042c3.949-3.135,8.144-4.173,12.466-3.085c8.115,2.043,10.742,13.365,12.66,21.633  c0.863,3.722,1.545,6.661,2.656,8.592c2.029,3.527,4.472,5.996,7.141,7.239c0.56,0.261,1.129,0.467,1.707,0.619  c2.511,0.657,5.103,0.253,7.495-1.17c6.055-3.602,7.63-13.28,4.214-25.887c-3.256-12.015-1.59-29.345,6.779-36.391  c4.389-3.696,10.18-3.91,17.21-0.638c5.991,2.789,9.412,6.337,10.169,10.546c1.868,10.39-11.728,24.156-17.534,30.034  c-0.729,0.739-1.372,1.389-1.896,1.938c-6.715,7.033-9.398,17.319-5.981,22.927c1.061,1.741,4.338,5.552,11.836,3.347  c3.425-1.007,6.856-2.363,10.174-3.673c8.98-3.547,17.461-6.897,26.804-4.5c6.347,1.629,10.978,5.004,13.04,9.505  C338.137,133.946,337.61,139.663,334.516,145.902z M269.276,142.06c-4.058,8.263-10.398,5.524-12.984,1.993  c-2.587-3.531,0.615-11.77,6.558-10.907C268.794,134.009,270.937,138.678,269.276,142.06z"></path>
<g>
	<path id="_x23_1AAFE0_00000177447142156224652110000001985049149458344887_" fill="#1AAFE0" d="M246.399,426.38   c-2.763-6.956-12.775-17.839-32.786-14.504c-8.808,1.468-15.789,6.102-19.659,13.048c-4.043,7.257-4.4,16.606-0.955,25.008   c2.618,6.384,7.638,11.271,14.136,13.762c3.203,1.228,6.611,1.837,10.107,1.837c4.899,0,9.971-1.198,14.889-3.571   C246.852,454.855,251,437.959,246.399,426.38z M228.937,455.343c-6.582,3.176-13.392,3.705-19.172,1.49   c-4.587-1.758-8.127-5.199-9.968-9.689c-2.605-6.352-2.389-13.323,0.575-18.645c2.8-5.025,7.796-8.267,14.449-9.376   c2.168-0.361,4.158-0.522,5.985-0.522c14.409,0,18.575,10.012,18.766,10.492C242.957,437.614,239.854,450.074,228.937,455.343z    M232.023,436.45c0.824,2.06-0.429,4.371-2.592,4.867l-0.057,0.013c-1.761,0.404-3.525-0.557-4.209-2.229   c-0.982-2.398-2.388-4.152-4.199-5.234c-1.889-1.128-3.965-1.403-5.575-1.394c-1.672,0.009-3.154-1.066-3.598-2.677l-0.011-0.038   c-0.633-2.298,1.07-4.593,3.453-4.616c2.685-0.027,6.189,0.443,9.497,2.418C227.997,429.507,230.438,432.489,232.023,436.45z"></path>
	<path id="_x23_1AAFE0_00000145768297083385323340000009693513866901293464_" fill="#1AAFE0" d="M463.166,470.609   c-0.875-6.47-4.458-12.162-9.584-15.228c-4.907-2.934-10.92-3.31-16.932-1.058c-13.659,5.117-15.981,15.492-15.201,20.817   c1.298,8.864,9.954,17.893,21.675,17.026c3.915-0.29,7.504-1.367,10.554-3.129c2.177-1.257,4.079-2.861,5.633-4.777   C462.462,480.373,463.831,475.525,463.166,470.609z M455.208,480.934c-2.803,3.457-7.233,5.576-12.473,5.964   c-8.692,0.644-15.103-5.999-16.058-12.523c-0.054-0.368-1.059-8.099,7.913-13.279c1.137-0.656,2.434-1.272,3.914-1.826   c4.541-1.701,8.818-1.478,12.367,0.644c3.759,2.248,6.399,6.511,7.06,11.403C458.399,474.775,457.432,478.19,455.208,480.934z    M444.225,464.829c0.303,1.163-0.234,2.365-1.278,2.96c-1.006,0.573-2.2,1.491-2.971,2.872c-0.739,1.324-0.984,2.922-0.733,4.768   c0.175,1.287-0.578,2.519-1.82,2.901l-0.04,0.012c-1.525,0.469-3.136-0.52-3.363-2.099c-0.437-3.036,0.012-5.77,1.343-8.156   c1.35-2.419,3.363-3.971,5.045-4.919c1.493-0.842,3.378-0.025,3.81,1.633L444.225,464.829z"></path>
	<path id="_x23_1AAFE0_00000139987125070811409720000010488944359216038551_" fill="#1AAFE0" d="M383.858,205.926   c-3.426-16.728-15.002-21.306-21.301-21.375c-10.487-0.115-22.507,8.248-23.641,21.961c-0.378,4.58,0.213,8.927,1.693,12.776   c1.056,2.747,2.565,5.239,4.497,7.385c3.92,4.352,9.277,6.82,15.083,6.947c7.641,0.168,14.878-2.937,19.358-8.306   C383.835,220.174,385.366,213.289,383.858,205.926z M374.799,221.351c-3.285,3.937-8.696,6.212-14.474,6.086   c-4.083-0.089-7.857-1.831-10.624-4.903c-3.487-3.871-5.129-9.381-4.623-15.512c0.841-10.169,9.691-16.371,17.409-16.286   c0.435,0.005,9.559,0.252,13.913,11.572c0.552,1.435,1.027,3.047,1.398,4.859C378.938,212.729,377.901,217.633,374.799,221.351z    M372.945,208.659c0.702,1.88-0.587,3.911-2.583,4.108l-0.033,0.003c-1.4,0.138-2.692-0.702-3.19-2.018   c-0.48-1.267-1.323-2.816-2.78-3.959c-1.397-1.096-3.2-1.67-5.38-1.717c-1.521-0.033-2.808-1.128-3.023-2.633l-0.007-0.048   c-0.264-1.849,1.173-3.532,3.04-3.507c3.591,0.048,6.671,1.066,9.187,3.04C370.727,203.93,372.155,206.541,372.945,208.659z"></path>
	<path id="_x23_1AAFE0_00000133527369989806262940000000923353150745086898_" fill="#1AAFE0" d="M585.974,14.976   c-10.128-10.101-20.33-7.946-24.762-5.081c-7.379,4.768-11.908,16.168-6.359,26.271c1.853,3.374,4.276,6.137,7.09,8.141   c2.008,1.43,4.214,2.474,6.556,3.079c4.751,1.227,9.633,0.474,13.748-2.122c5.415-3.416,9.034-8.931,9.681-14.753   C592.546,24.939,590.431,19.421,585.974,14.976z M586.778,29.939c-0.474,4.269-3.202,8.36-7.296,10.943   c-2.894,1.826-6.335,2.354-9.688,1.487c-4.226-1.092-7.92-4.181-10.401-8.698c-4.115-7.491-0.8-15.917,4.63-19.426   c0.306-0.198,6.794-4.244,15.069,1.651c1.049,0.747,2.126,1.653,3.223,2.748C585.683,22.002,587.226,25.908,586.778,29.939z    M579.709,25.994l-0.022,0.018c-0.914,0.744-2.205,0.755-3.161,0.066c-0.921-0.664-2.226-1.355-3.772-1.48   c-1.482-0.12-3.008,0.313-4.552,1.288c-1.077,0.68-2.483,0.511-3.329-0.442l-0.027-0.031c-1.039-1.17-0.814-3.009,0.502-3.855   c2.531-1.627,5.152-2.34,7.823-2.124c2.708,0.219,4.912,1.383,6.443,2.496C580.974,22.919,581.013,24.933,579.709,25.994z"></path>
	<path id="_x23_1AAFE0_00000168834463389314554170000008749869482596095667_" fill="#1AAFE0" d="M138.835,18.076   C123.044-2.919,103.936-1.651,95.134,2.406C80.48,9.16,69.285,28.709,76.749,48.517c2.493,6.616,6.181,12.268,10.776,16.642   c3.279,3.122,7.019,5.592,11.12,7.301c8.319,3.465,17.391,3.364,25.546-0.287c10.732-4.804,18.744-13.891,21.432-24.307   C148.195,37.896,145.785,27.316,138.835,18.076z M136.411,45.489c-1.971,7.639-7.993,14.368-16.107,18.001   c-5.735,2.568-12.128,2.634-18,0.188c-7.399-3.083-13.314-9.659-16.651-18.515c-5.535-14.689,2.679-29.146,13.464-34.116   c0.608-0.28,13.454-5.951,26.968,6.914c1.713,1.631,3.436,3.558,5.147,5.833C136.481,30.775,138.272,38.276,136.411,45.489z    M125.467,29.068c2.214,2.15,1.763,5.823-0.883,7.413l-0.044,0.027c-1.855,1.115-4.205,0.799-5.765-0.701   c-1.502-1.446-3.695-3.042-6.474-3.671c-2.664-0.603-5.549-0.212-8.611,1.16c-2.135,0.957-4.647,0.284-5.938-1.668l-0.042-0.063   c-1.586-2.396-0.698-5.682,1.915-6.879c5.023-2.3,9.975-2.916,14.775-1.831C119.266,23.957,122.972,26.646,125.467,29.068z"></path>
	<path id="_x23_1AAFE0_00000175284091820191558280000017169272820274479247_" fill="#1AAFE0" d="M172.36,106.504   c-2.69-4.954-7.604-8.293-13.837-9.402c-14.161-2.518-21.343,5.121-23.356,10.031c-3.35,8.174-0.54,20.184,9.843,25.334   c3.468,1.72,7.055,2.608,10.528,2.646c2.479,0.027,4.899-0.379,7.179-1.225c4.626-1.716,8.223-5.143,10.128-9.648   C175.352,118.311,175.17,111.68,172.36,106.504z M168.047,122.213c-1.339,3.169-3.876,5.581-7.141,6.793   c-4.115,1.526-8.939,1.099-13.581-1.204c-7.699-3.819-9.804-12.676-7.338-18.692c0.139-0.339,3.169-7.405,13.385-7.294   c1.295,0.014,2.704,0.143,4.239,0.416c4.708,0.837,8.226,3.174,10.172,6.758C169.843,112.786,169.942,117.729,168.047,122.213z    M159.682,109.795l-0.008,0.027c-0.327,1.139-1.386,1.89-2.571,1.87c-1.141-0.019-2.616,0.16-3.963,0.945   c-1.292,0.753-2.302,1.986-3.017,3.678c-0.498,1.18-1.756,1.848-3.001,1.548l-0.04-0.01c-1.53-0.368-2.4-2.016-1.8-3.47   c1.154-2.796,2.908-4.891,5.236-6.247c2.36-1.375,4.848-1.681,6.752-1.641C158.959,106.531,160.149,108.17,159.682,109.795z"></path>
	<path id="_x23_1AAFE0_00000093172504832772797480000002876545948521805738_" fill="#1AAFE0" d="M64.359,104.488   c-3.866-7.12-10.929-11.918-19.886-13.511c-20.352-3.619-30.673,7.359-33.565,14.416c-4.815,11.747-0.776,29.007,14.145,36.409   c4.984,2.472,10.138,3.749,15.13,3.803c3.562,0.039,7.041-0.545,10.318-1.761c6.648-2.466,11.817-7.39,14.555-13.866   C68.659,121.456,68.398,111.927,64.359,104.488z M58.161,127.063c-1.925,4.554-5.57,8.021-10.263,9.762   c-5.913,2.193-12.846,1.579-19.517-1.73c-11.065-5.489-14.089-18.217-10.545-26.863c0.2-0.487,4.555-10.642,19.236-10.483   c1.861,0.02,3.887,0.206,6.092,0.598c6.766,1.203,11.821,4.562,14.618,9.713C60.742,113.516,60.885,120.62,58.161,127.063z    M46.14,109.217l-0.011,0.039c-0.47,1.637-1.992,2.716-3.695,2.688c-1.64-0.027-3.759,0.23-5.696,1.359   c-1.857,1.082-3.309,2.854-4.335,5.286c-0.716,1.696-2.523,2.655-4.313,2.224l-0.058-0.014c-2.198-0.529-3.449-2.897-2.587-4.987   c1.659-4.018,4.179-7.029,7.525-8.978c3.392-1.976,6.967-2.415,9.703-2.358C45.101,104.526,46.81,106.883,46.14,109.217z"></path>
	<path id="_x23_1AAFE0_00000127030900472570618170000004925037903907720376_" fill="#1AAFE0" d="M392.943,32.525   c-1.503-10.163-7.823-18.953-17.796-24.752c-22.659-13.175-39.733-4.597-46.251,2.547c-10.851,11.892-13.559,34.206,0.985,49.52   c4.858,5.115,10.441,8.88,16.361,11.119c4.225,1.598,8.622,2.418,13.054,2.398c8.991-0.041,17.292-3.653,23.372-10.173   C390.672,54.604,394.512,43.143,392.943,32.525z M375.728,56.709c-4.276,4.585-10.127,7.126-16.474,7.154   c-7.997,0.036-15.986-3.715-22.489-10.561c-10.786-11.356-8.843-27.832-0.857-36.584c0.45-0.493,10.059-10.689,27.473-4.105   c2.207,0.835,4.539,1.938,6.994,3.366c7.534,4.38,12.09,10.582,13.177,17.934C384.703,41.7,381.778,50.222,375.728,56.709z    M369.186,30.221l-0.03,0.042c-1.273,1.745-3.555,2.366-5.571,1.591c-1.942-0.746-4.577-1.363-7.375-0.863   c-2.683,0.479-5.183,1.957-7.466,4.407c-1.592,1.708-4.161,2.063-6.106,0.77l-0.063-0.042c-2.388-1.588-2.846-4.953-0.908-7.066   c3.726-4.063,8.039-6.55,12.872-7.414c4.9-0.875,9.349,0.159,12.582,1.418C369.992,24.181,371.001,27.733,369.186,30.221z"></path>
	<path id="_x23_1AAFE0" fill="#1AAFE0" d="M49.425,435.402c-5.818-2.281-17.783-2.576-25.725,10.796   c-3.495,5.885-4.057,12.482-1.581,18.574c2.587,6.365,8.359,11.773,15.441,14.466c5.381,2.046,11.018,1.877,15.872-0.476   c2.393-1.16,4.495-2.782,6.253-4.794c2.464-2.819,4.253-6.405,5.215-10.555C67.781,450.987,59.111,439.198,49.425,435.402z    M59.081,461.568c-1.289,5.555-4.377,9.769-8.695,11.862c-3.426,1.661-7.398,1.784-11.182,0.344   c-5.354-2.036-9.684-6.039-11.581-10.706c-1.791-4.408-1.342-9.087,1.298-13.532c0.861-1.449,1.759-2.683,2.678-3.734   c7.248-8.292,15.717-5.118,16.119-4.96C54.846,443.634,61.218,452.354,59.081,461.568z M50.4,453.478l-0.02,0.04   c-0.629,1.238-2.127,1.719-3.536,1.182c-2.02-0.769-3.844-0.937-5.444-0.496c-1.668,0.459-2.888,1.501-3.692,2.433   c-0.835,0.967-2.265,1.222-3.514,0.581l-0.03-0.015c-1.782-0.914-2.386-3.171-1.202-4.556c1.334-1.56,3.395-3.315,6.316-4.12   c2.881-0.793,6.008-0.539,9.327,0.753C50.332,449.95,51.173,451.957,50.4,453.478z"></path>
</g>
<g>
</g>
<g>
</g>
<g>
</g>
<g>
</g>
<g>
</g>
</svg>
